<svg height="656pt" viewBox="-50 -20 656 656.00008" width="656pt" xmlns="http://www.w3.org/2000/svg"><path d="m256.46875 28.75h-51.960938c-5.519531 0-10 4.476562-10 10s4.480469 10 10 10h51.960938c5.519531 0 10-4.476562 10-10s-4.480469-10-10-10zm0 0"/><path d="m256.46875 57.5h-51.960938c-5.519531 0-10 4.476562-10 10s4.480469 10 10 10h51.960938c5.519531 0 10-4.476562 10-10s-4.480469-10-10-10zm0 0"/><path d="m256.46875 86.25h-51.960938c-5.519531 0-10 4.476562-10 10s4.480469 10 10 10h51.960938c5.519531 0 10-4.476562 10-10s-4.480469-10-10-10zm0 0"/><path d="m256.46875 115h-51.960938c-5.519531 0-10 4.476562-10 10s4.480469 10 10 10h51.960938c5.519531 0 10-4.476562 10-10s-4.480469-10-10-10zm0 0"/><path d="m204.507812 273.75h51.960938c5.519531 0 10-4.476562 10-10s-4.480469-10-10-10h-51.960938c-5.519531 0-10 4.476562-10 10s4.480469 10 10 10zm0 0"/><path d="m204.507812 302.5h51.960938c5.519531 0 10-4.476562 10-10s-4.480469-10-10-10h-51.960938c-5.519531 0-10 4.476562-10 10s4.480469 10 10 10zm0 0"/><path d="m204.507812 331.25h51.960938c5.519531 0 10-4.476562 10-10s-4.480469-10-10-10h-51.960938c-5.519531 0-10 4.476562-10 10s4.480469 10 10 10zm0 0"/><path d="m204.507812 360h51.960938c5.519531 0 10-4.476562 10-10s-4.480469-10-10-10h-51.960938c-5.519531 0-10 4.476562-10 10s4.480469 10 10 10zm0 0"/><path d="m462.191406 500h51.957032c5.519531 0 10-4.476562 10-10s-4.480469-10-10-10h-51.957032c-5.523437 0-10 4.476562-10 10s4.476563 10 10 10zm0 0"/><path d="m462.191406 528.75h51.957032c5.519531 0 10-4.476562 10-10s-4.480469-10-10-10h-51.957032c-5.523437 0-10 4.476562-10 10s4.476563 10 10 10zm0 0"/><path d="m462.191406 557.5h51.957032c5.519531 0 10-4.476562 10-10s-4.480469-10-10-10h-51.957032c-5.523437 0-10 4.476562-10 10s4.476563 10 10 10zm0 0"/><path d="m462.191406 586.25h51.957032c5.519531 0 10-4.476562 10-10s-4.480469-10-10-10h-51.957032c-5.523437 0-10 4.476562-10 10s4.476563 10 10 10zm0 0"/><path d="m287.191406 500h51.957032c5.523437 0 10-4.476562 10-10s-4.476563-10-10-10h-51.957032c-5.523437 0-10 4.476562-10 10s4.476563 10 10 10zm0 0"/><path d="m287.191406 528.75h51.957032c5.523437 0 10-4.476562 10-10s-4.476563-10-10-10h-51.957032c-5.523437 0-10 4.476562-10 10s4.476563 10 10 10zm0 0"/><path d="m287.191406 557.5h51.957032c5.523437 0 10-4.476562 10-10s-4.476563-10-10-10h-51.957032c-5.523437 0-10 4.476562-10 10s4.476563 10 10 10zm0 0"/><path d="m287.191406 586.25h51.957032c5.523437 0 10-4.476562 10-10s-4.476563-10-10-10h-51.957032c-5.523437 0-10 4.476562-10 10s4.476563 10 10 10zm0 0"/><path d="m7.992188 388.75h109.6875c5.519531 0 10.320312-3.964844 10.320312-9.488281v-144.261719c-.152344-5.585938-4.734375-10.023438-10.320312-10h-54.679688v-20h157.5v20h-44.851562c-5.554688-.011719-10.078126 4.449219-10.148438 10v144.261719c0 5.523437 4.625 9.488281 10.148438 9.488281h109.6875c5.519531 0 10.164062-3.964844 10.164062-9.488281v-144.261719c-.078125-5.558594-4.609375-10.015625-10.164062-10h-44.835938v-20h157.5v20h-54.695312c-5.582032-.023438-10.164063 4.417969-10.304688 10v144.261719c0 5.523437 4.78125 9.488281 10.304688 9.488281h47.195312v13.75h-77.332031c-5.636719.179688-10.125 4.773438-10.167969 10.414062v38.335938h-44.675781c-5.523438 0-10.324219 3.964844-10.324219 9.488281v144.261719c.152344 5.585938 4.738281 10.023438 10.324219 10h109.6875c5.519531 0 9.992187-4.476562 9.988281-10v-144.261719c0-5.523437-4.46875-9.488281-9.988281-9.488281h-45.011719v-28.75h155v28.75h-44.675781c-5.523438 0-10.324219 3.964844-10.324219 9.488281v144.261719c.152344 5.585938 4.738281 10.023438 10.324219 10h109.683593c5.523438 0 9.996094-4.476562 9.992188-10v-144.261719c0-5.523437-4.46875-9.488281-9.992188-9.488281h-45.007812v-38.335938c-.082031-5.652343-4.597656-10.238281-10.25-10.414062h-77.25v-13.75h42.492188c5.519531 0 10.007812-3.964844 10.007812-9.488281v-144.261719c-.003906-5.527344-4.488281-10-10.007812-10h-34.992188v-30c-.199219-5.605469-4.820312-10.035156-10.429688-10h-167.070312v-21.25h44.835938c5.519531 0 10.164062-3.964844 10.164062-9.488281v-144.261719c-.078125-5.554688-4.609375-10.015625-10.164062-10h-109.6875c-5.554688-.0078125-10.078126 4.449219-10.148438 10v144.261719c0 5.523437 4.625 9.488281 10.148438 9.488281h44.851562v21.25h-167.09375c-5.601562-.027344-10.214844 4.398438-10.40625 10v30h-35.007812c-5.523438 0-9.996094 4.476562-9.992188 10v144.261719c0 5.523437 4.46875 9.488281 9.992188 9.488281zm267.507812-20h-90v-123.75h90zm82.5 226.25h-90v-123.75h90zm175 0h-90v-123.75h90zm-90-226.25h-90v-123.75h90zm-257.5-348.75h90v123.75h-90zm-167.5 225h90v123.75h-90zm0 0"/><path d="m88.8125 253.75h-51.960938c-5.519531 0-10 4.476562-10 10s4.480469 10 10 10h51.960938c5.519531 0 10-4.476562 10-10s-4.480469-10-10-10zm0 0"/><path d="m88.8125 282.5h-51.960938c-5.519531 0-10 4.476562-10 10s4.480469 10 10 10h51.960938c5.519531 0 10-4.476562 10-10s-4.480469-10-10-10zm0 0"/><path d="m88.8125 311.25h-51.960938c-5.519531 0-10 4.476562-10 10s4.480469 10 10 10h51.960938c5.519531 0 10-4.476562 10-10s-4.480469-10-10-10zm0 0"/><path d="m88.8125 340h-51.960938c-5.519531 0-10 4.476562-10 10s4.480469 10 10 10h51.960938c5.519531 0 10-4.476562 10-10s-4.480469-10-10-10zm0 0"/><path d="m372.171875 273.75h51.953125c5.519531 0 10-4.476562 10-10s-4.480469-10-10-10h-51.953125c-5.527344 0-10 4.476562-10 10s4.472656 10 10 10zm0 0"/><path d="m372.171875 302.5h51.953125c5.519531 0 10-4.476562 10-10s-4.480469-10-10-10h-51.953125c-5.527344 0-10 4.476562-10 10s4.472656 10 10 10zm0 0"/><path d="m372.171875 331.25h51.953125c5.519531 0 10-4.476562 10-10s-4.480469-10-10-10h-51.953125c-5.527344 0-10 4.476562-10 10s4.472656 10 10 10zm0 0"/><path d="m372.171875 360h51.953125c5.519531 0 10-4.476562 10-10s-4.480469-10-10-10h-51.953125c-5.527344 0-10 4.476562-10 10s4.472656 10 10 10zm0 0"/></svg>